<svg width="456" height="2422" viewBox="0 0 456 2422" fill="none" xmlns="http://www.w3.org/2000/svg">
<g style="mix-blend-mode:overlay">
<line x1="0.533203" y1="0.5" x2="455.533" y2="0.5" stroke="#57FF84"/>
<line x1="0.533203" y1="64.5" x2="455.533" y2="64.5" stroke="#57FF84"/>
<line x1="0.533203" y1="128.5" x2="455.533" y2="128.5" stroke="#57FF84"/>
<line x1="0.533203" y1="192.5" x2="455.533" y2="192.5" stroke="#57FF84"/>
<line x1="0.533203" y1="256.5" x2="455.533" y2="256.5" stroke="#57FF84"/>
<line x1="0.533203" y1="320.5" x2="455.533" y2="320.5" stroke="#57FF84"/>
<line x1="0.533203" y1="384.5" x2="455.533" y2="384.5" stroke="#57FF84"/>
<line x1="0.533203" y1="448.5" x2="455.533" y2="448.5" stroke="#57FF84"/>
<line x1="0.533203" y1="512.5" x2="455.533" y2="512.5" stroke="#57FF84"/>
<line x1="0.533203" y1="576.5" x2="455.533" y2="576.5" stroke="#57FF84"/>
<line x1="0.533203" y1="640.5" x2="455.533" y2="640.5" stroke="#57FF84"/>
<line x1="0.533203" y1="704.5" x2="455.533" y2="704.5" stroke="#57FF84"/>
<line x1="0.533203" y1="768.5" x2="455.533" y2="768.5" stroke="#57FF84"/>
<line x1="0.533203" y1="832.5" x2="455.533" y2="832.5" stroke="#57FF84"/>
<line x1="0.533203" y1="896.5" x2="455.533" y2="896.5" stroke="#57FF84"/>
<line x1="0.533203" y1="960.5" x2="455.533" y2="960.5" stroke="#57FF84"/>
<line x1="0.533203" y1="1024.5" x2="455.533" y2="1024.5" stroke="#57FF84"/>
<line x1="0.533203" y1="1088.5" x2="455.533" y2="1088.5" stroke="#57FF84"/>
<line x1="0.533203" y1="1152.5" x2="455.533" y2="1152.5" stroke="#57FF84"/>
<line x1="0.533203" y1="1216.5" x2="455.533" y2="1216.5" stroke="#57FF84"/>
<line x1="0.533203" y1="1280.5" x2="455.533" y2="1280.5" stroke="#57FF84"/>
<line x1="0.533203" y1="1344.5" x2="455.533" y2="1344.5" stroke="#57FF84"/>
<line x1="0.533203" y1="1408.5" x2="455.533" y2="1408.5" stroke="#57FF84"/>
<line x1="0.533203" y1="1472.5" x2="455.533" y2="1472.5" stroke="#57FF84"/>
<line x1="0.533203" y1="1536.5" x2="455.533" y2="1536.5" stroke="#57FF84"/>
<line x1="0.533203" y1="1600.5" x2="455.533" y2="1600.5" stroke="#57FF84"/>
<line x1="0.533203" y1="1664.5" x2="455.533" y2="1664.5" stroke="#57FF84"/>
<line x1="0.533203" y1="1728.5" x2="455.533" y2="1728.5" stroke="#57FF84"/>
<line x1="0.533203" y1="1792.5" x2="455.533" y2="1792.5" stroke="#57FF84"/>
<line x1="0.533203" y1="1856.5" x2="455.533" y2="1856.5" stroke="#57FF84"/>
<line x1="0.533203" y1="1920.5" x2="455.533" y2="1920.5" stroke="#57FF84"/>
<line x1="0.533203" y1="1984.5" x2="455.533" y2="1984.5" stroke="#57FF84"/>
<line x1="0.533203" y1="2048.5" x2="455.533" y2="2048.5" stroke="#57FF84"/>
<line x1="0.533203" y1="2112.5" x2="455.533" y2="2112.5" stroke="#57FF84"/>
<line x1="0.533203" y1="2176.5" x2="455.533" y2="2176.5" stroke="#57FF84"/>
<line x1="0.533203" y1="2240.5" x2="455.533" y2="2240.5" stroke="#57FF84"/>
<line x1="0.533203" y1="2304.5" x2="455.533" y2="2304.5" stroke="#57FF84"/>
<line x1="0.533203" y1="2368.5" x2="455.533" y2="2368.5" stroke="#57FF84"/>
<line x1="1.5" y1="2422" x2="1.49995" y2="4.65247e-08" stroke="#57FF84"/>
<line x1="65.5001" y1="2422" x2="65.5" y2="1.22969e-07" stroke="#57FF84"/>
<line x1="129.5" y1="2422" x2="129.5" y2="1.22969e-07" stroke="#57FF84"/>
<line x1="193.5" y1="2422" x2="193.5" y2="1.22969e-07" stroke="#57FF84"/>
<line x1="257.5" y1="2422" x2="257.5" y2="1.2099e-07" stroke="#57FF84"/>
<line x1="321.5" y1="2422" x2="321.5" y2="1.2099e-07" stroke="#57FF84"/>
<line x1="385.5" y1="2422" x2="385.5" y2="1.2099e-07" stroke="#57FF84"/>
</g>
</svg>
